<svg width="23" height="30" viewBox="0 0 23 30" fill="none" xmlns="http://www.w3.org/2000/svg">
<g id="logo">
<g id="Group 3">
<path id="Vector" d="M17.1096 15.2492C17.0948 12.8096 19.1024 11.6344 19.1916 11.5749C18.0465 9.90881 16.2769 9.68567 15.6523 9.6708C14.1652 9.52204 12.7227 10.5633 11.9643 10.5633C11.2059 10.5633 10.0311 9.68567 8.76702 9.71542C7.14608 9.74517 5.64411 10.6824 4.81133 12.1253C3.10117 15.0856 4.38007 19.4442 6.01588 21.8392C6.83379 23.0144 7.8004 24.3235 9.04957 24.2789C10.2839 24.2342 10.73 23.4904 12.2171 23.4904C13.7042 23.4904 14.1206 24.2788 15.3995 24.2491C16.723 24.2342 17.5409 23.0739 18.3439 21.8838C19.2957 20.545 19.6675 19.2211 19.6823 19.1467C19.6526 19.1467 17.1245 18.1649 17.0948 15.2492H17.1096Z" fill="black"/>
<path id="Vector_2" d="M14.7003 8.09417C15.3547 7.276 15.8157 6.14544 15.6818 5C14.7301 5.04463 13.5255 5.65454 12.8415 6.47271C12.2317 7.18675 11.6815 8.34706 11.8302 9.44787C12.9009 9.52225 14.0014 8.91234 14.7003 8.09417Z" fill="black"/>
</g>
</g>
</svg>
