<svg width="40" height="160" viewBox="0 0 40 160" fill="none" xmlns="http://www.w3.org/2000/svg">
<mask id="mask0_595_21264" style="mask-type:luminance" maskUnits="userSpaceOnUse" x="0" y="120" width="40" height="40">
<path d="M40 120H0V160H40V120Z" fill="white"/>
</mask>
<g mask="url(#mask0_595_21264)">
<path fill-rule="evenodd" clip-rule="evenodd" d="M32.9167 155.417V149.561C34.7875 149.355 36.25 147.774 36.25 145.84V125.83C36.25 123.757 34.5687 122.084 32.5 122.084H10.8333C6.92083 122.084 3.75 125.255 3.75 129.167V152.501C3.75 155.492 6.175 157.917 9.16667 157.917H35C35.6896 157.917 36.25 157.357 36.25 156.667C36.25 155.978 35.6896 155.417 35 155.417H32.9167ZM9.16667 149.584C7.55625 149.584 6.25 150.89 6.25 152.501C6.25 154.111 7.55625 155.417 9.16667 155.417H30.4167V149.584H9.16667Z" fill="#93D0EA"/>
<path fill-rule="evenodd" clip-rule="evenodd" d="M32.9167 155.417V149.561C34.7875 149.355 36.25 147.774 36.25 145.84V125.83C36.25 123.757 34.5687 122.084 32.5 122.084H10.8333C6.92083 122.084 3.75 125.255 3.75 129.167V152.501C3.75 155.492 6.175 157.917 9.16667 157.917H35C35.6896 157.917 36.25 157.357 36.25 156.667C36.25 155.978 35.6896 155.417 35 155.417H32.9167ZM9.16667 149.584C7.55625 149.584 6.25 150.89 6.25 152.501C6.25 154.111 7.55625 155.417 9.16667 155.417H30.4167V149.584H9.16667Z" fill="url(#paint0_linear_595_21264)" fill-opacity="0.5"/>
<path d="M27.9173 131.668C27.9173 132.358 27.3569 132.918 26.6673 132.918H13.334C12.6444 132.918 12.084 132.358 12.084 131.668C12.084 130.978 12.6444 130.418 13.334 130.418H26.6673C27.3569 130.418 27.9173 130.978 27.9173 131.668Z" fill="#0099DA"/>
<path d="M9.16667 149.584H30.4167V155.417H9.16667C7.55625 155.417 6.25 154.111 6.25 152.501C6.25 150.99 7.39792 149.749 8.86875 149.599C8.96667 149.588 9.06667 149.584 9.16667 149.584Z" fill="#0099DA"/>
<path d="M20.0007 139.584C20.6902 139.584 21.2507 139.024 21.2507 138.334C21.2507 137.644 20.6902 137.084 20.0007 137.084H13.334C12.6444 137.084 12.084 137.644 12.084 138.334C12.084 139.024 12.6444 139.584 13.334 139.584H20.0007Z" fill="#0099DA"/>
</g>
<mask id="mask1_595_21264" style="mask-type:luminance" maskUnits="userSpaceOnUse" x="0" y="80" width="40" height="40">
<path d="M40 80H0V120H40V80Z" fill="white"/>
</mask>
<g mask="url(#mask1_595_21264)">
<path d="M9.16732 93.75C5.25482 93.75 2.08398 96.9208 2.08398 100.833V110.833C2.08398 114.746 5.25482 117.917 9.16732 117.917H30.834C34.7465 117.917 37.9173 114.746 37.9173 110.833V100.833C37.9173 96.9208 34.7465 93.75 30.834 93.75H9.16732Z" fill="#BBADE6"/>
<path d="M9.16732 93.75C5.25482 93.75 2.08398 96.9208 2.08398 100.833V110.833C2.08398 114.746 5.25482 117.917 9.16732 117.917H30.834C34.7465 117.917 37.9173 114.746 37.9173 110.833V100.833C37.9173 96.9208 34.7465 93.75 30.834 93.75H9.16732Z" fill="url(#paint1_linear_595_21264)" fill-opacity="0.5"/>
<path d="M21.2505 103.649V83.334C21.2505 82.6444 20.6901 82.084 20.0005 82.084C19.3109 82.084 18.7505 82.6444 18.7505 83.334V103.649L15.8839 100.784C15.3964 100.294 14.6047 100.294 14.1172 100.784C13.6276 101.271 13.6276 102.063 14.1172 102.551L19.1172 107.551C19.6047 108.04 20.3964 108.04 20.8839 107.551L25.8839 102.551C26.3734 102.063 26.3734 101.271 25.8839 100.784C25.3964 100.294 24.6047 100.294 24.1172 100.784L21.2505 103.649Z" fill="#6341CF"/>
</g>
<path d="M33.0646 77.2086L29.3109 77.4844C23.0338 77.944 16.7282 77.944 10.4532 77.4844L6.69957 77.2086C5.6862 77.1342 4.89171 76.3375 5.01209 75.3898C5.89851 68.4166 12.2194 63.0105 19.8821 63.0105C27.5447 63.0105 33.8656 68.4166 34.7542 75.3898C34.8746 76.3375 34.0801 77.1342 33.0667 77.2086H33.0646ZM19.8821 63.0105C23.7495 63.0105 26.8859 59.4824 26.8859 55.1312C26.8859 50.7801 23.7495 47.252 19.8821 47.252C16.0146 47.252 12.8782 50.7801 12.8782 55.1312C12.8782 59.4824 16.0146 63.0105 19.8821 63.0105Z" fill="#F3B7A0"/>
<path d="M33.0646 77.2086L29.3109 77.4844C23.0338 77.944 16.7282 77.944 10.4532 77.4844L6.69957 77.2086C5.6862 77.1342 4.89171 76.3375 5.01209 75.3898C5.89851 68.4166 12.2194 63.0105 19.8821 63.0105C27.5447 63.0105 33.8656 68.4166 34.7542 75.3898C34.8746 76.3375 34.0801 77.1342 33.0667 77.2086H33.0646ZM19.8821 63.0105C23.7495 63.0105 26.8859 59.4824 26.8859 55.1312C26.8859 50.7801 23.7495 47.252 19.8821 47.252C16.0146 47.252 12.8782 50.7801 12.8782 55.1312C12.8782 59.4824 16.0146 63.0105 19.8821 63.0105Z" fill="url(#paint2_linear_595_21264)" fill-opacity="0.5"/>
<path d="M32.0751 54.9067C31.981 47.8241 26.6231 42 19.8819 42C13.1407 42 7.80468 47.8022 7.68868 54.8673H7.67773V57.3208C7.67773 58.7413 8.8465 59.8641 10.2516 59.8641C11.6568 59.8641 12.8255 58.7413 12.8255 57.3208V57.2377C12.8255 55.6553 11.4313 54.4602 9.87518 54.6288L9.4462 54.6747C9.65412 48.5464 14.2963 43.751 19.8797 43.751C25.4631 43.751 30.0768 48.5179 30.3088 54.6178L29.9652 54.5609C28.385 54.3026 26.9317 55.5196 26.9317 57.1173C26.9317 57.3996 26.9886 57.6689 27.0761 57.9227H23.7384C23.6333 57.4697 23.3094 57.1173 22.8979 56.94C22.8695 56.9269 22.8454 56.905 22.8147 56.8941C22.6812 56.8481 22.539 56.8284 22.3923 56.8218C22.3704 56.8218 22.3529 56.8109 22.331 56.8109C22.331 56.8109 22.331 56.8109 22.3288 56.8109H21.5759C20.7968 56.8109 20.1314 57.4325 20.1314 58.2379C20.1314 59.0433 20.7968 59.6737 21.5759 59.6737H25.5944H29.6938C29.7595 59.6737 29.8164 59.6496 29.8755 59.6365C31.1077 59.4592 32.0795 58.4239 32.0795 57.1304V54.9045H32.0707L32.0751 54.9067ZM10.0678 56.3688C10.6237 56.3075 11.0768 56.7343 11.0768 57.2377V57.3208C11.0768 57.7411 10.7244 58.1132 10.2538 58.1132C9.78326 58.1132 9.43088 57.7433 9.43088 57.3208V56.4388L10.0678 56.3688ZM30.3329 57.1348C30.3329 57.555 29.9805 57.9271 29.5099 57.9271C29.0394 57.9271 28.687 57.5528 28.687 57.1217C28.687 56.6183 29.1576 56.2068 29.6872 56.2922L30.3351 56.3972V57.1348H30.3329Z" fill="#F15A21" stroke="#F15A21" stroke-width="0.3"/>
<mask id="mask2_595_21264" style="mask-type:luminance" maskUnits="userSpaceOnUse" x="0" y="0" width="40" height="40">
<path d="M40 0H0V40H40V0Z" fill="white"/>
</mask>
<g mask="url(#mask2_595_21264)">
<path d="M4.58398 12.4993C4.58398 9.9681 6.63607 7.91602 9.16732 7.91602H16.6673C17.3569 7.91602 17.9173 7.3556 17.9173 6.66602C17.9173 5.97643 17.3569 5.41602 16.6673 5.41602H9.16732C5.25482 5.41602 2.08398 8.58685 2.08398 12.4993V30.8327C2.08398 34.7452 5.25482 37.916 9.16732 37.916H27.5007C31.4132 37.916 34.584 34.7452 34.584 30.8327V23.3327C34.584 22.6431 34.0236 22.0827 33.334 22.0827C32.6444 22.0827 32.084 22.6431 32.084 23.3327V30.8327C32.084 33.3639 30.0319 35.416 27.5007 35.416H9.16732C6.63607 35.416 4.58398 33.3639 4.58398 30.8327V12.4993Z" fill="#99BBDA"/>
<path d="M4.58398 12.4993C4.58398 9.9681 6.63607 7.91602 9.16732 7.91602H16.6673C17.3569 7.91602 17.9173 7.3556 17.9173 6.66602C17.9173 5.97643 17.3569 5.41602 16.6673 5.41602H9.16732C5.25482 5.41602 2.08398 8.58685 2.08398 12.4993V30.8327C2.08398 34.7452 5.25482 37.916 9.16732 37.916H27.5007C31.4132 37.916 34.584 34.7452 34.584 30.8327V23.3327C34.584 22.6431 34.0236 22.0827 33.334 22.0827C32.6444 22.0827 32.084 22.6431 32.084 23.3327V30.8327C32.084 33.3639 30.0319 35.416 27.5007 35.416H9.16732C6.63607 35.416 4.58398 33.3639 4.58398 30.8327V12.4993Z" fill="url(#paint3_linear_595_21264)" fill-opacity="0.5"/>
<path d="M26.2507 6.25L33.7507 13.75L21.9423 25.5604C21.6153 25.8875 21.3444 26.1604 21.0236 26.3771C20.7423 26.5708 20.4382 26.7271 20.1173 26.8438C19.7548 26.9771 19.3757 27.0396 18.9194 27.1167L14.6361 27.8292C14.4548 27.8604 14.2423 27.8958 14.059 27.9083C13.859 27.925 13.5278 27.9313 13.1778 27.7813C12.7465 27.5958 12.4048 27.2542 12.2194 26.8229C12.0694 26.4729 12.0757 26.1417 12.0923 25.9417C12.1048 25.7583 12.1403 25.5458 12.1715 25.3646L12.884 21.0813C12.9611 20.625 13.0236 20.2458 13.1569 19.8833C13.2736 19.5625 13.4298 19.2583 13.6236 18.9771C13.8403 18.6562 14.1132 18.3854 14.4403 18.0583L26.2507 6.25Z" fill="#99BBDA"/>
<path d="M26.2507 6.25L33.7507 13.75L21.9423 25.5604C21.6153 25.8875 21.3444 26.1604 21.0236 26.3771C20.7423 26.5708 20.4382 26.7271 20.1173 26.8438C19.7548 26.9771 19.3757 27.0396 18.9194 27.1167L14.6361 27.8292C14.4548 27.8604 14.2423 27.8958 14.059 27.9083C13.859 27.925 13.5278 27.9313 13.1778 27.7813C12.7465 27.5958 12.4048 27.2542 12.2194 26.8229C12.0694 26.4729 12.0757 26.1417 12.0923 25.9417C12.1048 25.7583 12.1403 25.5458 12.1715 25.3646L12.884 21.0813C12.9611 20.625 13.0236 20.2458 13.1569 19.8833C13.2736 19.5625 13.4298 19.2583 13.6236 18.9771C13.8403 18.6562 14.1132 18.3854 14.4403 18.0583L26.2507 6.25Z" fill="url(#paint4_linear_595_21264)" fill-opacity="0.5"/>
<path d="M30.2917 2.51055C31.4437 1.9418 32.7958 1.9418 33.9479 2.51055C34.5583 2.81471 35.0896 3.34596 35.7375 3.99596L35.8708 4.1293L36.0042 4.26055C36.6542 4.91055 37.1854 5.4418 37.4896 6.05221C38.0583 7.2043 38.0583 8.55638 37.4896 9.70846C37.1854 10.3189 36.6542 10.8501 36.0042 11.498L33.75 13.7501L26.25 6.25013L28.5021 3.99596C29.15 3.34596 29.6812 2.81471 30.2917 2.51055Z" fill="#0055A2"/>
</g>
<defs>
<linearGradient id="paint0_linear_595_21264" x1="5.26163" y1="122.084" x2="40.4224" y2="151.008" gradientUnits="userSpaceOnUse">
<stop offset="0.1" stop-color="white"/>
<stop offset="0.6" stop-color="white" stop-opacity="0"/>
</linearGradient>
<linearGradient id="paint1_linear_595_21264" x1="3.75065" y1="93.75" x2="26.8942" y2="124.874" gradientUnits="userSpaceOnUse">
<stop offset="0.1" stop-color="white"/>
<stop offset="0.6" stop-color="white" stop-opacity="0"/>
</linearGradient>
<linearGradient id="paint2_linear_595_21264" x1="6.38448" y1="47.252" x2="36.7261" y2="74.0414" gradientUnits="userSpaceOnUse">
<stop offset="0.1" stop-color="white"/>
<stop offset="0.6" stop-color="white" stop-opacity="0"/>
</linearGradient>
<linearGradient id="paint3_linear_595_21264" x1="3.59561" y1="5.41602" x2="35.9413" y2="34.7528" gradientUnits="userSpaceOnUse">
<stop offset="0.1" stop-color="white"/>
<stop offset="0.6" stop-color="white" stop-opacity="0"/>
</linearGradient>
<linearGradient id="paint4_linear_595_21264" x1="13.0917" y1="6.25" x2="34.6556" y2="25.8079" gradientUnits="userSpaceOnUse">
<stop offset="0.1" stop-color="white"/>
<stop offset="0.6" stop-color="white" stop-opacity="0"/>
</linearGradient>
</defs>
</svg>
