<svg width="40" height="80" viewBox="0 0 40 80" fill="none" xmlns="http://www.w3.org/2000/svg">
<mask id="mask0_597_21265" style="mask-type:luminance" maskUnits="userSpaceOnUse" x="0" y="40" width="40" height="40">
<path d="M40 40H0V80H40V40Z" fill="white"/>
</mask>
<g mask="url(#mask0_597_21265)">
<path d="M5 57.0918C4.31042 57.0918 3.75 57.6522 3.75 58.3418V70.8418C3.75 74.7543 6.92083 77.9251 10.8333 77.9251H29.1667C33.0792 77.9251 36.25 74.7543 36.25 70.8418V58.3418C36.25 57.6522 35.6896 57.0918 35 57.0918H5Z" fill="#99BBDA"/>
<path d="M5 57.0918C4.31042 57.0918 3.75 57.6522 3.75 58.3418V70.8418C3.75 74.7543 6.92083 77.9251 10.8333 77.9251H29.1667C33.0792 77.9251 36.25 74.7543 36.25 70.8418V58.3418C36.25 57.6522 35.6896 57.0918 35 57.0918H5Z" fill="url(#paint0_linear_597_21265)" fill-opacity="0.5"/>
<path fill-rule="evenodd" clip-rule="evenodd" d="M10.309 48.7576C8.97982 46.2805 10.1777 42.7139 13.5298 42.1451C14.9215 41.9097 16.3423 42.3409 17.3694 43.3097L20.0007 45.7889L22.6319 43.3097C23.659 42.3409 25.0819 41.9097 26.4736 42.1451C29.8236 42.7139 31.0215 46.2805 29.6923 48.7576H33.334C35.8652 48.7576 37.9173 50.8097 37.9173 53.3409V57.5076C37.9173 58.6576 36.984 59.5909 35.834 59.5909H24.584V77.9159H22.084V59.5909H17.9173V77.9159H15.4173V59.5909H4.16732C3.01732 59.5909 2.08398 58.6576 2.08398 57.5076V53.3409C2.08398 50.8097 4.13607 48.7576 6.66732 48.7576H10.309ZM13.9465 44.6118C14.5652 44.5055 15.1986 44.6972 15.6548 45.1284L18.7507 48.0472V48.7576H14.3902L13.5923 48.4659C11.6652 47.7576 11.9215 44.9534 13.9465 44.6118ZM25.6132 48.7576L26.409 48.4659C28.3382 47.7576 28.0798 44.9534 26.0548 44.6118C25.4361 44.5055 24.8027 44.6972 24.3465 45.1284L21.2507 48.0472V48.7576H25.6132Z" fill="#0055A2"/>
</g>
<mask id="mask1_597_21265" style="mask-type:luminance" maskUnits="userSpaceOnUse" x="0" y="0" width="40" height="40">
<path d="M40 0H0V40H40V0Z" fill="white"/>
</mask>
<g mask="url(#mask1_597_21265)">
<path d="M31.1125 24.2366L36.3729 27.3719C37.4628 28.0189 38.0202 29.283 37.7714 30.5222C36.7511 35.6184 31.6351 38.8831 26.6285 37.5045C14.8087 34.2697 5.57194 25.0627 2.31717 13.2131C0.938614 8.20159 4.19837 3.08054 9.29453 2.06031H9.32937C10.5736 1.8065 11.8426 2.36887 12.4896 3.46375L15.6 8.71917C16.7049 10.5854 16.1574 12.9942 14.3509 14.1985L11.0414 16.3983C13.3754 21.9871 17.8346 26.4612 23.4085 28.7903L25.6281 25.4758C26.8375 23.6692 29.2462 23.1268 31.1125 24.2416V24.2366Z" fill="#99BBDA"/>
<path d="M31.1125 24.2366L36.3729 27.3719C37.4628 28.0189 38.0202 29.283 37.7714 30.5222C36.7511 35.6184 31.6351 38.8831 26.6285 37.5045C14.8087 34.2697 5.57194 25.0627 2.31717 13.2131C0.938614 8.20159 4.19837 3.08054 9.29453 2.06031H9.32937C10.5736 1.8065 11.8426 2.36887 12.4896 3.46375L15.6 8.71917C16.7049 10.5854 16.1574 12.9942 14.3509 14.1985L11.0414 16.3983C13.3754 21.9871 17.8346 26.4612 23.4085 28.7903L25.6281 25.4758C26.8375 23.6692 29.2462 23.1268 31.1125 24.2416V24.2366Z" fill="url(#paint1_linear_597_21265)" fill-opacity="0.5"/>
<path d="M31.3604 15.9299C31.3604 11.8142 28.0111 8.46484 23.8954 8.46484C23.0692 8.46484 22.4023 9.13172 22.4023 9.95786C22.4023 10.784 23.0692 11.4509 23.8954 11.4509C26.3638 11.4509 28.3744 13.4615 28.3744 15.9299C28.3744 16.7561 29.0413 17.4229 29.8674 17.4229C30.6936 17.4229 31.3604 16.7561 31.3604 15.9299Z" fill="#0055A2"/>
<path d="M35.8395 17.4243C35.0134 17.4243 34.3465 16.7574 34.3465 15.9313C34.3465 10.1683 29.6584 5.48018 23.8954 5.48018C23.0692 5.48018 22.4023 4.81329 22.4023 3.98716C22.4023 3.16102 23.0692 2.49414 23.8954 2.49414C31.3057 2.49414 37.3325 8.52095 37.3325 15.9313C37.3325 16.7574 36.6656 17.4243 35.8395 17.4243Z" fill="#0055A2"/>
</g>
<defs>
<linearGradient id="paint0_linear_597_21265" x1="5.26163" y1="57.0918" x2="24.9004" y2="84.8783" gradientUnits="userSpaceOnUse">
<stop offset="0.1" stop-color="white"/>
<stop offset="0.6" stop-color="white" stop-opacity="0"/>
</linearGradient>
<linearGradient id="paint1_linear_597_21265" x1="3.66651" y1="2" x2="39.3187" y2="34.3434" gradientUnits="userSpaceOnUse">
<stop offset="0.1" stop-color="white"/>
<stop offset="0.6" stop-color="white" stop-opacity="0"/>
</linearGradient>
</defs>
</svg>
