<svg width="22" height="30" viewBox="0 0 22 30" fill="none" xmlns="http://www.w3.org/2000/svg">
<g id="logo">
<g id="logo_2">
<path id="Vector" d="M2.83577 5.30016C2.61679 5.53643 2.5 5.89084 2.5 6.34861V22.9171C2.5 23.3749 2.63139 23.7441 2.83577 23.9656L2.89416 24.0247L12.0766 14.7362V14.5147L2.89416 5.25586L2.83577 5.31493" fill="#5AC9F4"/>
<g id="Clip path group">
<mask id="mask0_3422_134131" style="mask-type:luminance" maskUnits="userSpaceOnUse" x="12" y="11" width="8" height="7">
<g id="clippath">
<path id="Vector_2" d="M15.1282 17.8533L12.0771 14.7523V14.5307L15.1428 11.4297L18.8363 13.5561C19.8728 14.1468 19.8728 15.1214 18.8363 15.7121L15.2158 17.7942L15.1428 17.8385" fill="white"/>
</g>
</mask>
<g mask="url(#mask0_3422_134131)">
<g id="Group">
<path id="Vector_3" d="M19.8435 11.4453H12.0625V17.8542H19.8435V11.4453Z" fill="url(#paint0_linear_3422_134131)"/>
</g>
</g>
</g>
<g id="Clip path group_2">
<mask id="mask1_3422_134131" style="mask-type:luminance" maskUnits="userSpaceOnUse" x="2" y="14" width="14" height="11">
<g id="clippath-1">
<path id="Vector_4" d="M15.201 17.8086L12.0769 14.6484L2.85059 23.9812C3.18635 24.3503 3.7557 24.3946 4.38343 24.0255L15.201 17.8086Z" fill="white"/>
</g>
</mask>
<g mask="url(#mask1_3422_134131)">
<g id="Group_2">
<path id="Vector_5" d="M9.02551 8.3866L-1.97852 19.5176L9.02551 30.6486L20.0295 19.5176L9.02551 8.3866Z" fill="url(#paint1_linear_3422_134131)"/>
</g>
</g>
</g>
<g id="Clip path group_3">
<mask id="mask2_3422_134131" style="mask-type:luminance" maskUnits="userSpaceOnUse" x="2" y="5" width="14" height="10">
<g id="clippath-2">
<path id="Vector_6" d="M15.201 11.4726L4.38343 5.25572C3.7557 4.88655 3.18635 4.93085 2.85059 5.30003L12.0769 14.6327L15.201 11.4726Z" fill="white"/>
</g>
</mask>
<g mask="url(#mask2_3422_134131)">
<g id="Group_3">
<path id="Vector_7" d="M9.03039 -1.37121L-1.97363 9.75977L9.03039 20.8907L20.0344 9.75977L9.03039 -1.37121Z" fill="url(#paint2_linear_3422_134131)"/>
</g>
</g>
</g>
</g>
</g>
<defs>
<linearGradient id="paint0_linear_3422_134131" x1="18.379" y1="14.7321" x2="0.376368" y2="14.7321" gradientUnits="userSpaceOnUse">
<stop stop-color="#FEE000"/>
<stop offset="0.4" stop-color="#FBBD0D"/>
<stop offset="0.77" stop-color="#F9A417"/>
<stop offset="1" stop-color="#F99B1B"/>
</linearGradient>
<linearGradient id="paint1_linear_3422_134131" x1="13.0039" y1="15.6846" x2="-4.12123" y2="32.6144" gradientUnits="userSpaceOnUse">
<stop stop-color="#EF4547"/>
<stop offset="1" stop-color="#C6176D"/>
</linearGradient>
<linearGradient id="paint2_linear_3422_134131" x1="-3.99152" y1="-3.66047" x2="9.71768" y2="9.89237" gradientUnits="userSpaceOnUse">
<stop stop-color="#269E6F"/>
<stop offset="0.05" stop-color="#2BA06E"/>
<stop offset="0.47" stop-color="#52B26A"/>
<stop offset="0.8" stop-color="#6BBC68"/>
<stop offset="1" stop-color="#74C168"/>
</linearGradient>
</defs>
</svg>
